<mxfile host="65bd71144e">
    <diagram id="ZwlA52lnE6hXadXOMa7v" name="Monolith">
        <mxGraphModel dx="1186" dy="472" grid="1" gridSize="10" guides="1" tooltips="1" connect="1" arrows="1" fold="1" page="1" pageScale="1" pageWidth="850" pageHeight="1100" math="0" shadow="0">
            <root>
                <mxCell id="0"/>
                <mxCell id="1" parent="0"/>
                <mxCell id="7" style="edgeStyle=none;html=1;" edge="1" parent="1" source="2" target="3">
                    <mxGeometry relative="1" as="geometry"/>
                </mxCell>
                <mxCell id="2" value="" style="aspect=fixed;perimeter=ellipsePerimeter;html=1;align=center;shadow=0;dashed=0;spacingTop=3;image;image=img/lib/active_directory/laptop_client.svg;" vertex="1" parent="1">
                    <mxGeometry x="380" y="20" width="99" height="110" as="geometry"/>
                </mxCell>
                <mxCell id="3" value="" style="rounded=1;whiteSpace=wrap;html=1;" vertex="1" parent="1">
                    <mxGeometry x="329" y="220" width="201" height="290" as="geometry"/>
                </mxCell>
                <mxCell id="4" value="Presentation" style="rounded=1;whiteSpace=wrap;html=1;fillColor=#d80073;fontColor=#ffffff;strokeColor=#A50040;" vertex="1" parent="1">
                    <mxGeometry x="365" y="260" width="120" height="60" as="geometry"/>
                </mxCell>
                <mxCell id="5" value="Business" style="rounded=1;whiteSpace=wrap;html=1;fillColor=#1ba1e2;fontColor=#ffffff;strokeColor=#006EAF;" vertex="1" parent="1">
                    <mxGeometry x="365" y="335" width="120" height="60" as="geometry"/>
                </mxCell>
                <mxCell id="6" value="DataAccess" style="rounded=1;whiteSpace=wrap;html=1;fillColor=#60a917;fontColor=#ffffff;strokeColor=#2D7600;" vertex="1" parent="1">
                    <mxGeometry x="365" y="410" width="120" height="60" as="geometry"/>
                </mxCell>
                <mxCell id="8" value="" style="verticalLabelPosition=bottom;shadow=0;dashed=0;align=center;html=1;verticalAlign=top;strokeWidth=1;shape=mxgraph.mockup.containers.userMale;strokeColor=#666666;strokeColor2=#008cff;" vertex="1" parent="1">
                    <mxGeometry x="190" y="600" width="100" height="100" as="geometry"/>
                </mxCell>
                <mxCell id="9" value="" style="verticalLabelPosition=bottom;shadow=0;dashed=0;align=center;html=1;verticalAlign=top;strokeWidth=1;shape=mxgraph.mockup.containers.userFemale;strokeColor=#666666;strokeColor2=#008cff;" vertex="1" parent="1">
                    <mxGeometry x="290" y="600" width="100" height="100" as="geometry"/>
                </mxCell>
                <mxCell id="10" value="" style="verticalLabelPosition=bottom;shadow=0;dashed=0;align=center;html=1;verticalAlign=top;strokeWidth=1;shape=mxgraph.mockup.containers.userMale;strokeColor=#666666;strokeColor2=#008cff;" vertex="1" parent="1">
                    <mxGeometry x="390" y="600" width="100" height="100" as="geometry"/>
                </mxCell>
                <mxCell id="11" value="" style="verticalLabelPosition=bottom;shadow=0;dashed=0;align=center;html=1;verticalAlign=top;strokeWidth=1;shape=mxgraph.mockup.containers.userFemale;strokeColor=#666666;strokeColor2=#008cff;" vertex="1" parent="1">
                    <mxGeometry x="490" y="600" width="100" height="100" as="geometry"/>
                </mxCell>
                <mxCell id="12" value="" style="verticalLabelPosition=bottom;shadow=0;dashed=0;align=center;html=1;verticalAlign=top;strokeWidth=1;shape=mxgraph.mockup.containers.userMale;strokeColor=#666666;strokeColor2=#008cff;" vertex="1" parent="1">
                    <mxGeometry x="190" y="700" width="100" height="100" as="geometry"/>
                </mxCell>
                <mxCell id="13" value="" style="verticalLabelPosition=bottom;shadow=0;dashed=0;align=center;html=1;verticalAlign=top;strokeWidth=1;shape=mxgraph.mockup.containers.userFemale;strokeColor=#666666;strokeColor2=#008cff;" vertex="1" parent="1">
                    <mxGeometry x="290" y="700" width="100" height="100" as="geometry"/>
                </mxCell>
                <mxCell id="14" value="" style="verticalLabelPosition=bottom;shadow=0;dashed=0;align=center;html=1;verticalAlign=top;strokeWidth=1;shape=mxgraph.mockup.containers.userMale;strokeColor=#666666;strokeColor2=#008cff;" vertex="1" parent="1">
                    <mxGeometry x="390" y="700" width="100" height="100" as="geometry"/>
                </mxCell>
                <mxCell id="15" value="" style="verticalLabelPosition=bottom;shadow=0;dashed=0;align=center;html=1;verticalAlign=top;strokeWidth=1;shape=mxgraph.mockup.containers.userFemale;strokeColor=#666666;strokeColor2=#008cff;" vertex="1" parent="1">
                    <mxGeometry x="490" y="700" width="100" height="100" as="geometry"/>
                </mxCell>
                <mxCell id="16" value="" style="verticalLabelPosition=bottom;shadow=0;dashed=0;align=center;html=1;verticalAlign=top;strokeWidth=1;shape=mxgraph.mockup.containers.userMale;strokeColor=#666666;strokeColor2=#008cff;" vertex="1" parent="1">
                    <mxGeometry x="190" y="800" width="100" height="100" as="geometry"/>
                </mxCell>
                <mxCell id="17" value="" style="verticalLabelPosition=bottom;shadow=0;dashed=0;align=center;html=1;verticalAlign=top;strokeWidth=1;shape=mxgraph.mockup.containers.userFemale;strokeColor=#666666;strokeColor2=#008cff;" vertex="1" parent="1">
                    <mxGeometry x="290" y="800" width="100" height="100" as="geometry"/>
                </mxCell>
                <mxCell id="18" value="" style="verticalLabelPosition=bottom;shadow=0;dashed=0;align=center;html=1;verticalAlign=top;strokeWidth=1;shape=mxgraph.mockup.containers.userMale;strokeColor=#666666;strokeColor2=#008cff;" vertex="1" parent="1">
                    <mxGeometry x="390" y="800" width="100" height="100" as="geometry"/>
                </mxCell>
                <mxCell id="19" value="" style="verticalLabelPosition=bottom;shadow=0;dashed=0;align=center;html=1;verticalAlign=top;strokeWidth=1;shape=mxgraph.mockup.containers.userFemale;strokeColor=#666666;strokeColor2=#008cff;" vertex="1" parent="1">
                    <mxGeometry x="490" y="800" width="100" height="100" as="geometry"/>
                </mxCell>
                <mxCell id="20" value="" style="verticalLabelPosition=bottom;shadow=0;dashed=0;align=center;html=1;verticalAlign=top;strokeWidth=1;shape=mxgraph.mockup.containers.userMale;strokeColor=#666666;strokeColor2=#008cff;" vertex="1" parent="1">
                    <mxGeometry x="190" y="900" width="100" height="100" as="geometry"/>
                </mxCell>
                <mxCell id="21" value="" style="verticalLabelPosition=bottom;shadow=0;dashed=0;align=center;html=1;verticalAlign=top;strokeWidth=1;shape=mxgraph.mockup.containers.userFemale;strokeColor=#666666;strokeColor2=#008cff;" vertex="1" parent="1">
                    <mxGeometry x="290" y="900" width="100" height="100" as="geometry"/>
                </mxCell>
                <mxCell id="22" value="" style="verticalLabelPosition=bottom;shadow=0;dashed=0;align=center;html=1;verticalAlign=top;strokeWidth=1;shape=mxgraph.mockup.containers.userMale;strokeColor=#666666;strokeColor2=#008cff;" vertex="1" parent="1">
                    <mxGeometry x="390" y="900" width="100" height="100" as="geometry"/>
                </mxCell>
                <mxCell id="23" value="" style="verticalLabelPosition=bottom;shadow=0;dashed=0;align=center;html=1;verticalAlign=top;strokeWidth=1;shape=mxgraph.mockup.containers.userFemale;strokeColor=#666666;strokeColor2=#008cff;" vertex="1" parent="1">
                    <mxGeometry x="490" y="900" width="100" height="100" as="geometry"/>
                </mxCell>
                <mxCell id="24" value="" style="verticalLabelPosition=bottom;shadow=0;dashed=0;align=center;html=1;verticalAlign=top;strokeWidth=1;shape=mxgraph.mockup.containers.userFemale;strokeColor=#666666;strokeColor2=#008cff;" vertex="1" parent="1">
                    <mxGeometry x="590" y="600" width="100" height="100" as="geometry"/>
                </mxCell>
                <mxCell id="25" value="" style="verticalLabelPosition=bottom;shadow=0;dashed=0;align=center;html=1;verticalAlign=top;strokeWidth=1;shape=mxgraph.mockup.containers.userFemale;strokeColor=#666666;strokeColor2=#008cff;" vertex="1" parent="1">
                    <mxGeometry x="590" y="700" width="100" height="100" as="geometry"/>
                </mxCell>
                <mxCell id="26" value="" style="verticalLabelPosition=bottom;shadow=0;dashed=0;align=center;html=1;verticalAlign=top;strokeWidth=1;shape=mxgraph.mockup.containers.userFemale;strokeColor=#666666;strokeColor2=#008cff;" vertex="1" parent="1">
                    <mxGeometry x="590" y="800" width="100" height="100" as="geometry"/>
                </mxCell>
                <mxCell id="27" value="" style="verticalLabelPosition=bottom;shadow=0;dashed=0;align=center;html=1;verticalAlign=top;strokeWidth=1;shape=mxgraph.mockup.containers.userFemale;strokeColor=#666666;strokeColor2=#008cff;" vertex="1" parent="1">
                    <mxGeometry x="590" y="900" width="100" height="100" as="geometry"/>
                </mxCell>
            </root>
        </mxGraphModel>
    </diagram>
    <diagram id="HNE4PyQBF58k3YJO0UAk" name="Microservices">
        <mxGraphModel dx="1186" dy="472" grid="1" gridSize="10" guides="1" tooltips="1" connect="1" arrows="1" fold="1" page="1" pageScale="1" pageWidth="850" pageHeight="1100" math="0" shadow="0">
            <root>
                <mxCell id="F5-qt0BD1P7c-tkpXY7W-0"/>
                <mxCell id="F5-qt0BD1P7c-tkpXY7W-1" parent="F5-qt0BD1P7c-tkpXY7W-0"/>
                <mxCell id="s98WTmxzdZJSTOYFzI_C-0" value="" style="rounded=1;whiteSpace=wrap;html=1;" vertex="1" parent="F5-qt0BD1P7c-tkpXY7W-1">
                    <mxGeometry x="30" y="200" width="201" height="290" as="geometry"/>
                </mxCell>
                <mxCell id="s98WTmxzdZJSTOYFzI_C-1" value="Presentation" style="rounded=1;whiteSpace=wrap;html=1;fillColor=#d80073;fontColor=#ffffff;strokeColor=#A50040;" vertex="1" parent="F5-qt0BD1P7c-tkpXY7W-1">
                    <mxGeometry x="66" y="240" width="120" height="60" as="geometry"/>
                </mxCell>
                <mxCell id="s98WTmxzdZJSTOYFzI_C-2" value="Business" style="rounded=1;whiteSpace=wrap;html=1;fillColor=#1ba1e2;fontColor=#ffffff;strokeColor=#006EAF;" vertex="1" parent="F5-qt0BD1P7c-tkpXY7W-1">
                    <mxGeometry x="66" y="315" width="120" height="60" as="geometry"/>
                </mxCell>
                <mxCell id="s98WTmxzdZJSTOYFzI_C-3" value="DataAccess" style="rounded=1;whiteSpace=wrap;html=1;fillColor=#60a917;fontColor=#ffffff;strokeColor=#2D7600;" vertex="1" parent="F5-qt0BD1P7c-tkpXY7W-1">
                    <mxGeometry x="66" y="390" width="120" height="60" as="geometry"/>
                </mxCell>
                <mxCell id="s98WTmxzdZJSTOYFzI_C-4" value="" style="rounded=1;whiteSpace=wrap;html=1;" vertex="1" parent="F5-qt0BD1P7c-tkpXY7W-1">
                    <mxGeometry x="340" y="200" width="201" height="290" as="geometry"/>
                </mxCell>
                <mxCell id="s98WTmxzdZJSTOYFzI_C-5" value="Presentation" style="rounded=1;whiteSpace=wrap;html=1;fillColor=#d80073;fontColor=#ffffff;strokeColor=#A50040;" vertex="1" parent="F5-qt0BD1P7c-tkpXY7W-1">
                    <mxGeometry x="376" y="240" width="120" height="60" as="geometry"/>
                </mxCell>
                <mxCell id="s98WTmxzdZJSTOYFzI_C-6" value="Business" style="rounded=1;whiteSpace=wrap;html=1;fillColor=#1ba1e2;fontColor=#ffffff;strokeColor=#006EAF;" vertex="1" parent="F5-qt0BD1P7c-tkpXY7W-1">
                    <mxGeometry x="376" y="315" width="120" height="60" as="geometry"/>
                </mxCell>
                <mxCell id="s98WTmxzdZJSTOYFzI_C-7" value="DataAccess" style="rounded=1;whiteSpace=wrap;html=1;fillColor=#60a917;fontColor=#ffffff;strokeColor=#2D7600;" vertex="1" parent="F5-qt0BD1P7c-tkpXY7W-1">
                    <mxGeometry x="376" y="390" width="120" height="60" as="geometry"/>
                </mxCell>
                <mxCell id="s98WTmxzdZJSTOYFzI_C-8" value="" style="rounded=1;whiteSpace=wrap;html=1;" vertex="1" parent="F5-qt0BD1P7c-tkpXY7W-1">
                    <mxGeometry x="630" y="200" width="201" height="290" as="geometry"/>
                </mxCell>
                <mxCell id="s98WTmxzdZJSTOYFzI_C-9" value="Presentation" style="rounded=1;whiteSpace=wrap;html=1;fillColor=#d80073;fontColor=#ffffff;strokeColor=#A50040;" vertex="1" parent="F5-qt0BD1P7c-tkpXY7W-1">
                    <mxGeometry x="666" y="240" width="120" height="60" as="geometry"/>
                </mxCell>
                <mxCell id="s98WTmxzdZJSTOYFzI_C-10" value="Business" style="rounded=1;whiteSpace=wrap;html=1;fillColor=#1ba1e2;fontColor=#ffffff;strokeColor=#006EAF;" vertex="1" parent="F5-qt0BD1P7c-tkpXY7W-1">
                    <mxGeometry x="666" y="315" width="120" height="60" as="geometry"/>
                </mxCell>
                <mxCell id="s98WTmxzdZJSTOYFzI_C-11" value="DataAccess" style="rounded=1;whiteSpace=wrap;html=1;fillColor=#60a917;fontColor=#ffffff;strokeColor=#2D7600;" vertex="1" parent="F5-qt0BD1P7c-tkpXY7W-1">
                    <mxGeometry x="666" y="390" width="120" height="60" as="geometry"/>
                </mxCell>
                <mxCell id="s98WTmxzdZJSTOYFzI_C-12" value="Customer" style="text;html=1;align=center;verticalAlign=middle;resizable=0;points=[];autosize=1;strokeColor=none;fillColor=none;" vertex="1" parent="F5-qt0BD1P7c-tkpXY7W-1">
                    <mxGeometry x="90" y="160" width="70" height="20" as="geometry"/>
                </mxCell>
                <mxCell id="s98WTmxzdZJSTOYFzI_C-13" value="Product&lt;br&gt;" style="text;html=1;align=center;verticalAlign=middle;resizable=0;points=[];autosize=1;strokeColor=none;fillColor=none;" vertex="1" parent="F5-qt0BD1P7c-tkpXY7W-1">
                    <mxGeometry x="410.5" y="160" width="60" height="20" as="geometry"/>
                </mxCell>
                <mxCell id="s98WTmxzdZJSTOYFzI_C-14" value="Order" style="text;html=1;align=center;verticalAlign=middle;resizable=0;points=[];autosize=1;strokeColor=none;fillColor=none;" vertex="1" parent="F5-qt0BD1P7c-tkpXY7W-1">
                    <mxGeometry x="725" y="160" width="50" height="20" as="geometry"/>
                </mxCell>
                <mxCell id="s98WTmxzdZJSTOYFzI_C-15" value="" style="verticalLabelPosition=bottom;shadow=0;dashed=0;align=center;html=1;verticalAlign=top;strokeWidth=1;shape=mxgraph.mockup.containers.userFemale;strokeColor=#666666;strokeColor2=#008cff;" vertex="1" parent="F5-qt0BD1P7c-tkpXY7W-1">
                    <mxGeometry x="50" y="510" width="100" height="100" as="geometry"/>
                </mxCell>
                <mxCell id="s98WTmxzdZJSTOYFzI_C-16" value="" style="verticalLabelPosition=bottom;shadow=0;dashed=0;align=center;html=1;verticalAlign=top;strokeWidth=1;shape=mxgraph.mockup.containers.userMale;strokeColor=#666666;strokeColor2=#008cff;" vertex="1" parent="F5-qt0BD1P7c-tkpXY7W-1">
                    <mxGeometry x="150" y="510" width="100" height="100" as="geometry"/>
                </mxCell>
                <mxCell id="s98WTmxzdZJSTOYFzI_C-17" value="" style="verticalLabelPosition=bottom;shadow=0;dashed=0;align=center;html=1;verticalAlign=top;strokeWidth=1;shape=mxgraph.mockup.containers.userFemale;strokeColor=#666666;strokeColor2=#008cff;" vertex="1" parent="F5-qt0BD1P7c-tkpXY7W-1">
                    <mxGeometry x="50" y="600" width="100" height="100" as="geometry"/>
                </mxCell>
                <mxCell id="s98WTmxzdZJSTOYFzI_C-18" value="" style="verticalLabelPosition=bottom;shadow=0;dashed=0;align=center;html=1;verticalAlign=top;strokeWidth=1;shape=mxgraph.mockup.containers.userMale;strokeColor=#666666;strokeColor2=#008cff;" vertex="1" parent="F5-qt0BD1P7c-tkpXY7W-1">
                    <mxGeometry x="150" y="600" width="100" height="100" as="geometry"/>
                </mxCell>
                <mxCell id="s98WTmxzdZJSTOYFzI_C-19" value="" style="verticalLabelPosition=bottom;shadow=0;dashed=0;align=center;html=1;verticalAlign=top;strokeWidth=1;shape=mxgraph.mockup.containers.userFemale;strokeColor=#666666;strokeColor2=#008cff;" vertex="1" parent="F5-qt0BD1P7c-tkpXY7W-1">
                    <mxGeometry x="325" y="510" width="100" height="100" as="geometry"/>
                </mxCell>
                <mxCell id="s98WTmxzdZJSTOYFzI_C-20" value="" style="verticalLabelPosition=bottom;shadow=0;dashed=0;align=center;html=1;verticalAlign=top;strokeWidth=1;shape=mxgraph.mockup.containers.userMale;strokeColor=#666666;strokeColor2=#008cff;" vertex="1" parent="F5-qt0BD1P7c-tkpXY7W-1">
                    <mxGeometry x="425" y="510" width="100" height="100" as="geometry"/>
                </mxCell>
                <mxCell id="s98WTmxzdZJSTOYFzI_C-23" value="" style="verticalLabelPosition=bottom;shadow=0;dashed=0;align=center;html=1;verticalAlign=top;strokeWidth=1;shape=mxgraph.mockup.containers.userFemale;strokeColor=#666666;strokeColor2=#008cff;" vertex="1" parent="F5-qt0BD1P7c-tkpXY7W-1">
                    <mxGeometry x="626" y="520" width="100" height="100" as="geometry"/>
                </mxCell>
                <mxCell id="s98WTmxzdZJSTOYFzI_C-24" value="" style="verticalLabelPosition=bottom;shadow=0;dashed=0;align=center;html=1;verticalAlign=top;strokeWidth=1;shape=mxgraph.mockup.containers.userMale;strokeColor=#666666;strokeColor2=#008cff;" vertex="1" parent="F5-qt0BD1P7c-tkpXY7W-1">
                    <mxGeometry x="726" y="520" width="100" height="100" as="geometry"/>
                </mxCell>
                <mxCell id="s98WTmxzdZJSTOYFzI_C-25" value="" style="verticalLabelPosition=bottom;shadow=0;dashed=0;align=center;html=1;verticalAlign=top;strokeWidth=1;shape=mxgraph.mockup.containers.userFemale;strokeColor=#666666;strokeColor2=#008cff;" vertex="1" parent="F5-qt0BD1P7c-tkpXY7W-1">
                    <mxGeometry x="626" y="610" width="100" height="100" as="geometry"/>
                </mxCell>
                <mxCell id="s98WTmxzdZJSTOYFzI_C-26" value="" style="verticalLabelPosition=bottom;shadow=0;dashed=0;align=center;html=1;verticalAlign=top;strokeWidth=1;shape=mxgraph.mockup.containers.userMale;strokeColor=#666666;strokeColor2=#008cff;" vertex="1" parent="F5-qt0BD1P7c-tkpXY7W-1">
                    <mxGeometry x="726" y="610" width="100" height="100" as="geometry"/>
                </mxCell>
                <mxCell id="s98WTmxzdZJSTOYFzI_C-27" value="" style="verticalLabelPosition=bottom;shadow=0;dashed=0;align=center;html=1;verticalAlign=top;strokeWidth=1;shape=mxgraph.mockup.containers.userFemale;strokeColor=#666666;strokeColor2=#008cff;" vertex="1" parent="F5-qt0BD1P7c-tkpXY7W-1">
                    <mxGeometry x="626" y="710" width="100" height="100" as="geometry"/>
                </mxCell>
                <mxCell id="s98WTmxzdZJSTOYFzI_C-28" value="" style="verticalLabelPosition=bottom;shadow=0;dashed=0;align=center;html=1;verticalAlign=top;strokeWidth=1;shape=mxgraph.mockup.containers.userMale;strokeColor=#666666;strokeColor2=#008cff;" vertex="1" parent="F5-qt0BD1P7c-tkpXY7W-1">
                    <mxGeometry x="726" y="710" width="100" height="100" as="geometry"/>
                </mxCell>
                <mxCell id="s98WTmxzdZJSTOYFzI_C-29" value="" style="verticalLabelPosition=bottom;shadow=0;dashed=0;align=center;html=1;verticalAlign=top;strokeWidth=1;shape=mxgraph.mockup.containers.userFemale;strokeColor=#666666;strokeColor2=#008cff;" vertex="1" parent="F5-qt0BD1P7c-tkpXY7W-1">
                    <mxGeometry x="626" y="800" width="100" height="100" as="geometry"/>
                </mxCell>
                <mxCell id="s98WTmxzdZJSTOYFzI_C-30" value="" style="verticalLabelPosition=bottom;shadow=0;dashed=0;align=center;html=1;verticalAlign=top;strokeWidth=1;shape=mxgraph.mockup.containers.userMale;strokeColor=#666666;strokeColor2=#008cff;" vertex="1" parent="F5-qt0BD1P7c-tkpXY7W-1">
                    <mxGeometry x="726" y="800" width="100" height="100" as="geometry"/>
                </mxCell>
            </root>
        </mxGraphModel>
    </diagram>
    <diagram id="Vi6i5A-0C8PI5ZXqAnna" name="Bounded Context">
        <mxGraphModel dx="1078" dy="472" grid="1" gridSize="10" guides="1" tooltips="1" connect="1" arrows="1" fold="1" page="1" pageScale="1" pageWidth="850" pageHeight="1100" math="0" shadow="0">
            <root>
                <mxCell id="Jqh_ksjziiefC5sV1eK6-0"/>
                <mxCell id="Jqh_ksjziiefC5sV1eK6-1" parent="Jqh_ksjziiefC5sV1eK6-0"/>
                <mxCell id="w36Kbu-19KzFvKx6D4F_-8" style="edgeStyle=none;html=1;entryX=0.5;entryY=0;entryDx=0;entryDy=0;" edge="1" parent="Jqh_ksjziiefC5sV1eK6-1" source="w36Kbu-19KzFvKx6D4F_-0" target="w36Kbu-19KzFvKx6D4F_-2">
                    <mxGeometry relative="1" as="geometry"/>
                </mxCell>
                <mxCell id="w36Kbu-19KzFvKx6D4F_-9" style="edgeStyle=none;html=1;entryX=0.054;entryY=0.297;entryDx=0;entryDy=0;entryPerimeter=0;" edge="1" parent="Jqh_ksjziiefC5sV1eK6-1" source="w36Kbu-19KzFvKx6D4F_-0" target="w36Kbu-19KzFvKx6D4F_-5">
                    <mxGeometry relative="1" as="geometry"/>
                </mxCell>
                <mxCell id="w36Kbu-19KzFvKx6D4F_-10" style="edgeStyle=none;html=1;" edge="1" parent="Jqh_ksjziiefC5sV1eK6-1" source="w36Kbu-19KzFvKx6D4F_-0" target="w36Kbu-19KzFvKx6D4F_-7">
                    <mxGeometry relative="1" as="geometry">
                        <Array as="points">
                            <mxPoint x="550" y="50"/>
                        </Array>
                    </mxGeometry>
                </mxCell>
                <mxCell id="w36Kbu-19KzFvKx6D4F_-11" style="edgeStyle=none;html=1;entryX=0;entryY=0.5;entryDx=0;entryDy=0;" edge="1" parent="Jqh_ksjziiefC5sV1eK6-1" source="w36Kbu-19KzFvKx6D4F_-0" target="w36Kbu-19KzFvKx6D4F_-3">
                    <mxGeometry relative="1" as="geometry"/>
                </mxCell>
                <mxCell id="w36Kbu-19KzFvKx6D4F_-0" value="Customer Profile" style="ellipse;whiteSpace=wrap;html=1;" vertex="1" parent="Jqh_ksjziiefC5sV1eK6-1">
                    <mxGeometry x="50" y="60" width="140" height="90" as="geometry"/>
                </mxCell>
                <mxCell id="w36Kbu-19KzFvKx6D4F_-13" style="edgeStyle=none;html=1;" edge="1" parent="Jqh_ksjziiefC5sV1eK6-1" source="w36Kbu-19KzFvKx6D4F_-1" target="w36Kbu-19KzFvKx6D4F_-2">
                    <mxGeometry relative="1" as="geometry"/>
                </mxCell>
                <mxCell id="w36Kbu-19KzFvKx6D4F_-1" value="Product Management" style="ellipse;whiteSpace=wrap;html=1;" vertex="1" parent="Jqh_ksjziiefC5sV1eK6-1">
                    <mxGeometry x="620" width="170" height="110" as="geometry"/>
                </mxCell>
                <mxCell id="w36Kbu-19KzFvKx6D4F_-17" value="" style="edgeStyle=none;html=1;entryX=0.015;entryY=0.633;entryDx=0;entryDy=0;entryPerimeter=0;" edge="1" parent="Jqh_ksjziiefC5sV1eK6-1" source="w36Kbu-19KzFvKx6D4F_-2" target="w36Kbu-19KzFvKx6D4F_-3">
                    <mxGeometry relative="1" as="geometry"/>
                </mxCell>
                <mxCell id="w36Kbu-19KzFvKx6D4F_-2" value="Order Management" style="ellipse;whiteSpace=wrap;html=1;" vertex="1" parent="Jqh_ksjziiefC5sV1eK6-1">
                    <mxGeometry x="100" y="240" width="180" height="110" as="geometry"/>
                </mxCell>
                <mxCell id="w36Kbu-19KzFvKx6D4F_-3" value="Payment System" style="ellipse;whiteSpace=wrap;html=1;" vertex="1" parent="Jqh_ksjziiefC5sV1eK6-1">
                    <mxGeometry x="560" y="210" width="170" height="110" as="geometry"/>
                </mxCell>
                <mxCell id="w36Kbu-19KzFvKx6D4F_-14" style="edgeStyle=none;html=1;entryX=1;entryY=1;entryDx=0;entryDy=0;" edge="1" parent="Jqh_ksjziiefC5sV1eK6-1" source="w36Kbu-19KzFvKx6D4F_-4" target="w36Kbu-19KzFvKx6D4F_-2">
                    <mxGeometry relative="1" as="geometry"/>
                </mxCell>
                <mxCell id="w36Kbu-19KzFvKx6D4F_-15" style="edgeStyle=none;html=1;exitX=1;exitY=0.5;exitDx=0;exitDy=0;entryX=0.5;entryY=1;entryDx=0;entryDy=0;" edge="1" parent="Jqh_ksjziiefC5sV1eK6-1" source="w36Kbu-19KzFvKx6D4F_-4" target="w36Kbu-19KzFvKx6D4F_-1">
                    <mxGeometry relative="1" as="geometry"/>
                </mxCell>
                <mxCell id="w36Kbu-19KzFvKx6D4F_-4" value="Basket Management" style="ellipse;whiteSpace=wrap;html=1;" vertex="1" parent="Jqh_ksjziiefC5sV1eK6-1">
                    <mxGeometry x="320" y="330" width="170" height="110" as="geometry"/>
                </mxCell>
                <mxCell id="w36Kbu-19KzFvKx6D4F_-5" value="Shipment Management" style="ellipse;whiteSpace=wrap;html=1;" vertex="1" parent="Jqh_ksjziiefC5sV1eK6-1">
                    <mxGeometry x="640" y="340" width="170" height="110" as="geometry"/>
                </mxCell>
                <mxCell id="w36Kbu-19KzFvKx6D4F_-6" value="Context Mapping" style="text;html=1;align=center;verticalAlign=middle;resizable=0;points=[];autosize=1;strokeColor=none;fillColor=none;" vertex="1" parent="Jqh_ksjziiefC5sV1eK6-1">
                    <mxGeometry x="370" y="10" width="110" height="20" as="geometry"/>
                </mxCell>
                <mxCell id="w36Kbu-19KzFvKx6D4F_-12" style="edgeStyle=none;html=1;" edge="1" parent="Jqh_ksjziiefC5sV1eK6-1" source="w36Kbu-19KzFvKx6D4F_-7" target="w36Kbu-19KzFvKx6D4F_-3">
                    <mxGeometry relative="1" as="geometry"/>
                </mxCell>
                <mxCell id="w36Kbu-19KzFvKx6D4F_-7" value="Campaign System" style="ellipse;whiteSpace=wrap;html=1;" vertex="1" parent="Jqh_ksjziiefC5sV1eK6-1">
                    <mxGeometry x="330" y="80" width="170" height="90" as="geometry"/>
                </mxCell>
            </root>
        </mxGraphModel>
    </diagram>
</mxfile>